<?xml version="1.0" encoding="UTF-8"?>
<svg xmlns="http://www.w3.org/2000/svg" xmlns:xlink="http://www.w3.org/1999/xlink"
     width="300" height="104" viewBox="-37.5 -13.0 75 26">
<defs>
<g id="d0">
<g>
<symbol overflow="visible" id="embed-8094952933713929134-glyph0-0">
<path style="stroke:none;" d=""/>
</symbol>
<symbol overflow="visible" id="embed-8094952933713929134-glyph0-1">
<path style="stroke:none;" d="M 2.6875 4.390625 C 2.625 4.28125 2.578125 4.203125 2.484375 4.203125 C 2.4375 4.203125 2.421875 4.203125 2.296875 4.296875 L 0.953125 5.1875 C 0.84375 5.25 0.78125 5.296875 0.78125 5.390625 C 0.78125 5.515625 0.890625 5.5625 0.953125 5.5625 C 1.03125 5.5625 1.21875 5.4375 1.75 5.078125 L 3.921875 9.1875 C 4 9.34375 4 9.375 4.1875 9.375 C 4.40625 9.375 4.453125 9.3125 4.546875 9.125 L 9.765625 -0.0625 C 9.84375 -0.21875 9.84375 -0.265625 9.84375 -0.296875 C 9.84375 -0.484375 9.6875 -0.609375 9.546875 -0.609375 C 9.375 -0.609375 9.328125 -0.515625 9.234375 -0.375 L 4.53125 7.921875 Z M 2.6875 4.390625 "/>
</symbol>
<symbol overflow="visible" id="embed-8094952933713929134-glyph1-0">
<path style="stroke:none;" d=""/>
</symbol>
<symbol overflow="visible" id="embed-8094952933713929134-glyph1-1">
<path style="stroke:none;" d="M 5.796875 -3.9375 L 7.125 -5.234375 L 7.734375 -5.859375 C 8.140625 -6.234375 8.25 -6.359375 9.296875 -6.375 C 9.484375 -6.375 9.5 -6.625 9.5 -6.65625 C 9.5 -6.71875 9.453125 -6.84375 9.296875 -6.84375 C 8.953125 -6.84375 8.578125 -6.8125 8.21875 -6.8125 C 7.921875 -6.8125 7.203125 -6.84375 6.921875 -6.84375 C 6.84375 -6.84375 6.640625 -6.84375 6.640625 -6.5625 C 6.640625 -6.375 6.796875 -6.375 6.890625 -6.375 C 7.1875 -6.359375 7.453125 -6.28125 7.484375 -6.265625 L 5.578125 -4.390625 L 4.671875 -6.3125 C 4.765625 -6.328125 5.078125 -6.375 5.25 -6.375 C 5.359375 -6.375 5.53125 -6.375 5.53125 -6.65625 C 5.53125 -6.78125 5.4375 -6.84375 5.3125 -6.84375 C 4.96875 -6.84375 4.140625 -6.8125 3.796875 -6.8125 C 3.5625 -6.8125 3.34375 -6.8125 3.109375 -6.8125 C 2.875 -6.8125 2.640625 -6.84375 2.40625 -6.84375 C 2.328125 -6.84375 2.140625 -6.84375 2.140625 -6.5625 C 2.140625 -6.375 2.265625 -6.375 2.546875 -6.375 C 2.6875 -6.375 2.796875 -6.375 2.9375 -6.359375 C 3.078125 -6.34375 3.078125 -6.328125 3.140625 -6.203125 L 4.515625 -3.328125 L 2.015625 -0.859375 C 1.828125 -0.6875 1.625 -0.484375 0.734375 -0.46875 C 0.5625 -0.46875 0.390625 -0.46875 0.390625 -0.171875 C 0.390625 -0.109375 0.4375 0 0.59375 0 C 0.828125 0 1.4375 -0.03125 1.671875 -0.03125 C 1.96875 -0.03125 2.6875 0 2.96875 0 C 3.046875 0 3.25 0 3.25 -0.296875 C 3.25 -0.46875 3.078125 -0.46875 2.984375 -0.46875 C 2.796875 -0.46875 2.59375 -0.5 2.40625 -0.5625 L 4.71875 -2.875 L 5.859375 -0.53125 C 5.84375 -0.53125 5.515625 -0.46875 5.28125 -0.46875 C 5.171875 -0.46875 4.984375 -0.46875 4.984375 -0.171875 C 4.984375 -0.15625 5 0 5.203125 0 C 5.546875 0 6.390625 -0.03125 6.734375 -0.03125 C 6.953125 -0.03125 7.1875 -0.015625 7.421875 -0.015625 C 7.640625 -0.015625 7.890625 0 8.109375 0 C 8.1875 0 8.390625 0 8.390625 -0.296875 C 8.390625 -0.46875 8.234375 -0.46875 8 -0.46875 C 7.859375 -0.46875 7.75 -0.46875 7.609375 -0.484375 C 7.453125 -0.5 7.453125 -0.515625 7.375 -0.640625 Z M 5.796875 -3.9375 "/>
</symbol>
</g>
<clipPath id="embed-8094952933713929134-clip1">
  <path d="M 0 0 L 10 0 L 10 10.558594 L 0 10.558594 Z M 0 0 "/>
</clipPath>
<clipPath id="embed-8094952933713929134-clip2">
  <path d="M 9 0 L 29.972656 0 L 29.972656 2 L 9 2 Z M 9 0 "/>
</clipPath>
<clipPath id="embed-8094952933713929134-clip3">
  <path d="M 20 2 L 29.972656 2 L 29.972656 10 L 20 10 Z M 20 2 "/>
</clipPath>
</g>
</defs>
<g opacity="1.0" transform="scale(2.3333333333333335) translate(-14.9855, -5.28)">
<g id="embed-8094952933713929134-surface1">
<g clip-path="url(#embed-8094952933713929134-clip1)" clip-rule="nonzero">
<g style="fill:rgb(100%,100%,100%);fill-opacity:1;">
  <use xlink:href="#embed-8094952933713929134-glyph0-1" x="0" y="1.195"/>
</g>
</g>
<g clip-path="url(#embed-8094952933713929134-clip2)" clip-rule="nonzero">
<path style="fill:none;stroke-width:0.598;stroke-linecap:butt;stroke-linejoin:miter;stroke:rgb(100%,100%,100%);stroke-opacity:1;stroke-miterlimit:10;" d="M -0.000125 0.00146875 L 20.42175 0.00146875 " transform="matrix(1,0,0,-1,9.547,0.896)"/>
</g>
<g style="fill:rgb(100%,100%,100%);fill-opacity:1;">
  <use xlink:href="#embed-8094952933713929134-glyph1-1" x="9.547" y="9.544"/>
</g>
<g clip-path="url(#embed-8094952933713929134-clip3)" clip-rule="nonzero">
<g style="fill:rgb(100%,100%,100%);fill-opacity:1;">
  <use xlink:href="#embed-8094952933713929134-glyph1-1" x="19.760658" y="9.544"/>
</g>
</g>
</g>
</g>
</svg>
